<svg width="24" height="25" viewBox="0 0 24 25" fill="none" xmlns="http://www.w3.org/2000/svg">
<path d="M2 8.39355C2 6.18442 3.79086 4.39355 6 4.39355H18C20.2091 4.39355 22 6.18442 22 8.39355V16.3936C22 18.6027 20.2091 20.3936 18 20.3936H6C3.79086 20.3936 2 18.6027 2 16.3936V8.39355Z" stroke="#374151" stroke-width="1.5" stroke-linejoin="round"/>
<path d="M14 12.3936C14 13.4981 13.1046 14.3936 12 14.3936C10.8954 14.3936 10 13.4981 10 12.3936C10 11.289 10.8954 10.3936 12 10.3936C13.1046 10.3936 14 11.289 14 12.3936Z" stroke="#374151" stroke-width="1.5"/>
<path d="M6.5 7.89355C6.5 8.44584 6.05228 8.89355 5.5 8.89355C4.94772 8.89355 4.5 8.44584 4.5 7.89355C4.5 7.34127 4.94772 6.89355 5.5 6.89355C6.05228 6.89355 6.5 7.34127 6.5 7.89355Z" fill="#374151"/>
<path d="M19.5 7.89355C19.5 8.44584 19.0523 8.89355 18.5 8.89355C17.9477 8.89355 17.5 8.44584 17.5 7.89355C17.5 7.34127 17.9477 6.89355 18.5 6.89355C19.0523 6.89355 19.5 7.34127 19.5 7.89355Z" fill="#374151"/>
<path d="M6.5 16.8936C6.5 17.4458 6.05228 17.8936 5.5 17.8936C4.94772 17.8936 4.5 17.4458 4.5 16.8936C4.5 16.3413 4.94772 15.8936 5.5 15.8936C6.05228 15.8936 6.5 16.3413 6.5 16.8936Z" fill="#374151"/>
<path d="M19.5 16.8936C19.5 17.4458 19.0523 17.8936 18.5 17.8936C17.9477 17.8936 17.5 17.4458 17.5 16.8936C17.5 16.3413 17.9477 15.8936 18.5 15.8936C19.0523 15.8936 19.5 16.3413 19.5 16.8936Z" fill="#374151"/>
</svg>
