<svg width="22" height="21" viewBox="0 0 22 21" fill="none" xmlns="http://www.w3.org/2000/svg">
<path d="M11.1914 10.3936C12.296 10.3936 13.1914 9.49812 13.1914 8.39355C13.1914 7.28899 12.296 6.39355 11.1914 6.39355C10.0868 6.39355 9.19141 7.28899 9.19141 8.39355C9.19141 9.49812 10.0868 10.3936 11.1914 10.3936ZM11.1914 10.3936C8.98227 10.3936 7.19141 12.1844 7.19141 14.3936M11.1914 10.3936C13.4005 10.3936 15.1914 12.1844 15.1914 14.3936M10.1914 1.39355H12.1914C17.162 1.39355 21.1914 5.42299 21.1914 10.3936C21.1914 15.3641 17.162 19.3936 12.1914 19.3936H5.19141C2.98227 19.3936 1.19141 17.6027 1.19141 15.3936V10.3936C1.19141 5.42299 5.22084 1.39355 10.1914 1.39355Z" stroke="#363636" stroke-width="1.5" stroke-linecap="round"/>
</svg>
