<svg width="62" height="54" viewBox="0 0 62 54" fill="none" xmlns="http://www.w3.org/2000/svg">
<path d="M41.3486 5.51013C41.7882 5.51039 42.1445 5.86735 42.1445 6.30701C42.1445 6.74671 41.7883 7.10362 41.3486 7.10388C37.8356 7.10388 34.6708 9.37984 33.5371 12.6781L33.4336 13.0004C33.3184 13.3893 32.9321 13.6239 32.54 13.558L32.5352 13.5648L32.4424 13.5375C32.0211 13.4117 31.7815 12.968 31.9072 12.5463C33.1146 8.48952 36.8745 5.51013 41.3486 5.51013Z" fill="#333333" stroke="white" stroke-width="0.3"/>
<path d="M50.3992 37.9917H46.5195C46.1624 37.9917 45.8728 37.7021 45.8728 37.3451C45.8728 36.988 46.1624 36.6984 46.5195 36.6984H50.3992C55.7472 36.6984 60.0985 32.347 60.0985 26.999C60.0985 21.651 55.7472 17.2996 50.3992 17.2996H50.3059C50.1184 17.2996 49.9401 17.2183 49.8172 17.0765C49.6944 16.9347 49.6389 16.7467 49.6657 16.5611C49.7234 16.1583 49.7525 15.7537 49.7525 15.3597C49.7525 10.7248 45.9813 6.95353 41.3464 6.95353C39.5432 6.95353 37.8237 7.51702 36.3733 8.58348C36.0546 8.81765 35.602 8.71373 35.4177 8.36316C31.3103 0.54177 20.5821 -0.508563 15.0201 6.29536C12.677 9.16176 11.7564 12.8905 12.4941 16.5246C12.5754 16.926 12.2683 17.3001 11.8604 17.3001H11.6013C6.25331 17.3001 1.90195 21.6515 1.90195 26.9995C1.90195 32.3475 6.25331 36.6989 11.6013 36.6989H15.481C15.838 36.6989 16.1276 36.9885 16.1276 37.3455C16.1276 37.7026 15.838 37.9922 15.481 37.9922H11.6013C5.54009 37.9922 0.608643 33.0607 0.608643 26.9995C0.608643 21.1082 5.26707 16.2844 11.0937 16.0183C10.5464 12.248 11.593 8.44489 14.0187 5.47692C19.9737 -1.80824 31.3859 -0.991671 36.21 7.13182C37.7491 6.16695 39.5101 5.66079 41.3462 5.66079C46.9616 5.66079 51.4114 10.4403 51.022 16.0244C56.795 16.3481 61.3915 21.1465 61.3915 26.999C61.3915 33.0607 56.4601 37.9917 50.3989 37.9917L50.3992 37.9917Z" fill="#333333"/>
<path d="M30.915 20.6632C39.9117 20.6633 47.2305 27.9829 47.2305 36.9796C47.2304 45.9761 39.9116 53.2949 30.915 53.295C21.9185 53.295 14.5987 45.9763 14.5986 36.9796C14.5986 27.983 21.9183 20.6632 30.915 20.6632ZM30.915 22.257C22.7973 22.257 16.1924 28.862 16.1924 36.9796C16.1925 45.0973 22.7975 51.7023 30.915 51.7023C39.0325 51.7022 45.6366 45.0971 45.6367 36.9796C45.6367 28.8619 39.0325 22.2571 30.915 22.257Z" fill="#333333" stroke="white" stroke-width="0.3"/>
<path d="M31.2095 30.5553C31.5536 30.5554 31.8325 30.8352 31.8325 31.1793V43.4879C31.8324 43.8324 31.5535 44.1108 31.2095 44.111C30.8653 44.111 30.5856 43.8321 30.5854 43.4879V31.1793C30.5854 30.8351 30.8652 30.5553 31.2095 30.5553Z" fill="#333333" stroke="#333333" stroke-width="0.3"/>
<path d="M30.769 30.7393C31.0122 30.4962 31.4066 30.4963 31.6499 30.7393L35.437 34.5273C35.6804 34.7707 35.6801 35.1637 35.437 35.4072L35.438 35.4082C35.3162 35.5305 35.1555 35.5908 34.9966 35.5908C34.8374 35.5908 34.6777 35.5298 34.5562 35.4082L31.2095 32.0615L27.8628 35.4082C27.6195 35.6519 27.2244 35.6517 26.981 35.4082C26.738 35.1648 26.738 34.7708 26.981 34.5273L30.769 30.7393Z" fill="#333333" stroke="#333333" stroke-width="0.3"/>
</svg>
