<svg width="22" height="23" viewBox="0 0 22 23" fill="none" xmlns="http://www.w3.org/2000/svg">
<path d="M1.19141 3.39355C1.19141 2.28899 2.08684 1.39355 3.19141 1.39355H7.19141C8.29598 1.39355 9.19141 2.28899 9.19141 3.39355V7.39355C9.19141 8.49812 8.29598 9.39355 7.19141 9.39355H3.19141C2.08684 9.39355 1.19141 8.49812 1.19141 7.39355V3.39355Z" stroke="#363636" stroke-width="1.5" stroke-linejoin="round"/>
<path d="M13.1914 3.39355C13.1914 2.28899 14.0868 1.39355 15.1914 1.39355H19.1914C20.296 1.39355 21.1914 2.28899 21.1914 3.39355V7.39355C21.1914 8.49812 20.296 9.39355 19.1914 9.39355H15.1914C14.0868 9.39355 13.1914 8.49812 13.1914 7.39355V3.39355Z" stroke="#363636" stroke-width="1.5" stroke-linejoin="round"/>
<path d="M1.19141 15.3936C1.19141 14.289 2.08684 13.3936 3.19141 13.3936H7.19141C8.29598 13.3936 9.19141 14.289 9.19141 15.3936V19.3936C9.19141 20.4981 8.29598 21.3936 7.19141 21.3936H3.19141C2.08684 21.3936 1.19141 20.4981 1.19141 19.3936V15.3936Z" stroke="#363636" stroke-width="1.5" stroke-linejoin="round"/>
<path d="M13.1914 15.3936C13.1914 14.289 14.0868 13.3936 15.1914 13.3936H19.1914C20.296 13.3936 21.1914 14.289 21.1914 15.3936V19.3936C21.1914 20.4981 20.296 21.3936 19.1914 21.3936H15.1914C14.0868 21.3936 13.1914 20.4981 13.1914 19.3936V15.3936Z" stroke="#363636" stroke-width="1.5" stroke-linejoin="round"/>
</svg>
